<?xml version="1.0" encoding="UTF-8" standalone="no"?>
<!-- Created with Inkscape (http://www.inkscape.org/) -->

<svg
   width="1000.0001"
   height="1000.0001"
   viewBox="0 0 264.58335 264.58335"
   version="1.1"
   id="svg1"
   xml:space="preserve"
   sodipodi:docname="florence_logo.svg"
   inkscape:version="1.4.3 (0d15f75042, 2025-12-25)"
   inkscape:export-filename="florence_logo.png"
   inkscape:export-xdpi="3.0719995"
   inkscape:export-ydpi="3.0719995"
   xmlns:inkscape="http://www.inkscape.org/namespaces/inkscape"
   xmlns:sodipodi="http://sodipodi.sourceforge.net/DTD/sodipodi-0.dtd"
   xmlns:xlink="http://www.w3.org/1999/xlink"
   xmlns="http://www.w3.org/2000/svg"
   xmlns:svg="http://www.w3.org/2000/svg"><sodipodi:namedview
     id="namedview1"
     pagecolor="#ffffff"
     bordercolor="#999999"
     borderopacity="1"
     inkscape:showpageshadow="2"
     inkscape:pageopacity="0"
     inkscape:pagecheckerboard="0"
     inkscape:deskcolor="#d1d1d1"
     inkscape:zoom="0.8429999"
     inkscape:cx="500.00006"
     inkscape:cy="500.00006"
     inkscape:window-width="1920"
     inkscape:window-height="1052"
     inkscape:window-x="0"
     inkscape:window-y="0"
     inkscape:window-maximized="1"
     inkscape:current-layer="svg1" /><defs
     id="defs1"><linearGradient
       id="linearGradient22"><stop
         style="stop-color:#ffffff;stop-opacity:1;"
         offset="0"
         id="stop22" /><stop
         style="stop-color:#ffffff;stop-opacity:0;"
         offset="1"
         id="stop23" /></linearGradient><linearGradient
       id="linearGradient20"><stop
         style="stop-color:#ffffff;stop-opacity:1;"
         offset="0"
         id="stop20" /><stop
         style="stop-color:#ffffff;stop-opacity:0;"
         offset="1"
         id="stop21" /></linearGradient><linearGradient
       id="linearGradient18"><stop
         style="stop-color:#ffffff;stop-opacity:1;"
         offset="0"
         id="stop18" /><stop
         style="stop-color:#ffffff;stop-opacity:0;"
         offset="1"
         id="stop19" /></linearGradient><linearGradient
       id="linearGradient16"><stop
         style="stop-color:#ffffff;stop-opacity:1;"
         offset="0"
         id="stop16" /><stop
         style="stop-color:#ffffff;stop-opacity:0;"
         offset="1"
         id="stop17" /></linearGradient><linearGradient
       id="linearGradient14"><stop
         style="stop-color:#9600ff;stop-opacity:1;"
         offset="0"
         id="stop14" /><stop
         style="stop-color:#9600ff;stop-opacity:0;"
         offset="1"
         id="stop15" /></linearGradient><linearGradient
       id="linearGradient12"><stop
         style="stop-color:#9600ff;stop-opacity:1;"
         offset="0"
         id="stop12" /><stop
         style="stop-color:#9600ff;stop-opacity:0;"
         offset="1"
         id="stop13" /></linearGradient><linearGradient
       id="linearGradient10"><stop
         style="stop-color:#9600ff;stop-opacity:1;"
         offset="0"
         id="stop10" /><stop
         style="stop-color:#9600ff;stop-opacity:0;"
         offset="1"
         id="stop11" /></linearGradient><linearGradient
       xlink:href="#linearGradient10"
       id="linearGradient11"
       x1="71.079178"
       y1="104.98932"
       x2="106.04626"
       y2="166.99644"
       gradientUnits="userSpaceOnUse"
       gradientTransform="matrix(1.4054383,0,0,1.4054383,-51.401187,-14.036882)" /><linearGradient
       xlink:href="#linearGradient12"
       id="linearGradient13"
       x1="55.429878"
       y1="64.02462"
       x2="118.08432"
       y2="156.20015"
       gradientUnits="userSpaceOnUse"
       gradientTransform="matrix(1.4054383,0,0,1.4054383,-51.401187,-14.036882)" /><linearGradient
       xlink:href="#linearGradient14"
       id="linearGradient15"
       x1="85.573761"
       y1="45.464954"
       x2="132.65802"
       y2="113.60011"
       gradientUnits="userSpaceOnUse"
       gradientTransform="matrix(1.4054383,0,0,1.4054383,-51.401187,-14.036882)" /><linearGradient
       xlink:href="#linearGradient16"
       id="linearGradient17"
       x1="103.38606"
       y1="53.810574"
       x2="107.57841"
       y2="61.150848"
       gradientUnits="userSpaceOnUse"
       gradientTransform="matrix(1.4054383,0,0,1.4054383,-51.401187,-14.036882)" /><linearGradient
       xlink:href="#linearGradient18"
       id="linearGradient19"
       x1="71.783806"
       y1="79.182381"
       x2="74.426155"
       y2="84.731316"
       gradientUnits="userSpaceOnUse"
       gradientTransform="matrix(1.4054383,0,0,1.4054383,-51.401187,-14.036882)" /><linearGradient
       xlink:href="#linearGradient20"
       id="linearGradient21"
       x1="72.136124"
       y1="115.20641"
       x2="75.659256"
       y2="121.45996"
       gradientUnits="userSpaceOnUse"
       gradientTransform="matrix(1.4054383,0,0,1.4054383,-51.401187,-14.036882)" /><linearGradient
       xlink:href="#linearGradient22"
       id="linearGradient23"
       x1="81.961479"
       y1="11.210536"
       x2="102.63869"
       y2="56.550926"
       gradientUnits="userSpaceOnUse"
       gradientTransform="matrix(1.4054383,0,0,1.4054383,-51.401187,-14.036882)" /></defs><rect
     style="fill:#161925;fill-opacity:1;stroke:#800080;stroke-width:0.001"
     id="rect1"
     width="297.70462"
     height="286.07831"
     x="-28.537369"
     y="-16.911032" /><g
     id="layer2"><g
       id="g25"
       transform="translate(-4.123688,7.214596)"><path
         style="fill:#ffe680;fill-opacity:1;stroke:#800081;stroke-width:0.00140544;stroke-opacity:1"
         id="path3"
         d="m 150.272,138.26839 a 2.2758257,4.2015243 0 0 1 -5e-5,0.0275 l -2.27578,-0.0275 z" /><path
         style="fill:url(#linearGradient23);fill-opacity:1;stroke:#a400ff;stroke-width:1.68793;stroke-dasharray:none;stroke-opacity:0.675352"
         id="path4"
         d="M 34.780485,83.247516 A 105.7508,105.7508 0 0 1 152.51717,15.272211 105.7508,105.7508 0 0 1 239.90453,119.41642 105.7508,105.7508 0 0 1 152.51717,223.56063" /><path
         style="fill:#f9f9f9;fill-opacity:1;stroke:#ffffff;stroke-width:0.423037;stroke-dasharray:none;stroke-opacity:1"
         d="m 88.294242,236.44935 2.104404,-0.61894 1.733052,-1.0522 2.460286,-1.46999 1.593785,-1.54735 1.35927,-1.60602 1.214508,-1.90382 1.09414,-1.92569 0.831543,-2.40713 0.48144,-2.18829 0.30636,-1.9257 v -3.54504 l 0.17506,-33.78725 0.48143,-2.62596 0.83154,-2.84478 1.83817,-4.3766 1.96947,-3.10736 2.45089,-2.97609 2.45089,-2.05699 2.97608,-2.27583 2.75725,-1.83816 3.23867,-1.66312 4.59542,-1.96945 4.24528,-1.31298 4.33283,-0.83155 5.73333,-0.87532 3.85139,-0.39389 4.50789,-0.0875 5.38321,-0.0875 7.00253,-0.39389 5.07685,-0.74401 3.4575,-0.61273 1.57558,-0.65647 1.2692,-0.48145 1.57557,-0.74402 1.61935,-1.0066 1.44427,-0.87532 1.18168,-1.05039 1.09415,-1.2692 1.5318,-1.79441 0.61272,-0.96285 0.83155,-1.6631 0.91909,-1.88193 0.56896,-1.35674 0.21882,-1.05039 0.0383,-0.31182 1.24187,0.0113 v 41.46916 h -1.04074 l -0.30173,-1.06767 -0.47194,-1.09089 -0.78141,-1.58605 -0.76595,-1.35393 -0.98257,-1.66341 -1.05995,-1.43904 -2.5686,-2.73109 -2.21272,-1.68662 -1.80268,-1.07541 -1.83361,-1.00578 -1.23016,-0.67311 -2.1895,-0.79688 -1.36169,-0.36363 -2.33649,-0.46421 -1.97289,-0.37911 -2.65372,-0.41778 -3.90707,-0.37137 -7.11785,-0.40231 -5.60144,0.21664 -5.63238,0.74273 -5.87996,1.42357 -3.09471,1.33072 -2.81619,1.57831 -2.32103,2.07345 -1.33074,2.35199 -0.89746,2.1663 -0.49516,1.23788 v 45.64705 l 0.0618,1.91872 0.30948,1.73305 0.34042,1.54736 0.43326,2.07345 0.61894,1.76398 0.86653,1.67115 1.36167,1.54736 1.57831,1.42357 1.85682,1.29977 2.32104,0.99032 1.94966,0.5261 2.72336,0.49515 2.35197,0.37137 2.04253,0.15474 v 1.64019 H 88.280304 Z"
         id="path6" /><path
         style="fill:#f9f9f9;fill-opacity:1;stroke:#ffffff;stroke-width:0.423037;stroke-dasharray:none;stroke-opacity:1"
         d="m 101.27657,170.29982 0.0773,-45.19831 0.27852,-3.46607 0.40231,-3.9303 0.68084,-3.83745 1.1141,-5.19911 1.39262,-4.30166 2.50671,-6.096591 2.19725,-4.02313 4.11597,-5.23006 3.55894,-3.187575 4.64206,-2.93998 6.31322,-2.6305 5.01344,-1.021258 4.64207,-0.402314 h 48.77271 l 4.45639,-0.371365 4.70396,-0.711783 4.3326,-1.114097 2.84714,-1.145045 2.93998,-1.949671 h 1.1141 v 35.372599 h -1.29978 l -0.52611,-3.12566 -0.68083,-1.79493 -1.14504,-2.41388 -1.33074,-2.135361 -1.4545,-2.22819 -1.91873,-2.44482 -2.13536,-1.82589 -2.1663,-1.76399 -2.6924,-1.67114 -1.76399,-0.866535 -2.81619,-1.20693 -2.13536,-0.80463 -2.87807,-0.92841 -2.97094,-0.86652 -4.30164,-0.64989 -2.44482,-0.27853 -3.3423,-0.34042 -1.57831,-0.21662 h -13.89521 l -0.74274,0.21662 -2.04252,0.40232 -2.87808,0.27852 -2.13535,0.5261 -2.47577,0.61894 -2.75429,0.80463 -1.91873,0.55705 -1.85682,1.0522 -2.44484,1.114095 -2.5067,1.60927 -2.97094,2.47576 -1.76399,1.91873 -1.60925,2.13535 -1.45452,2.53768 -1.39262,3.280391 -0.83557,2.29009 -0.77368,2.93998 -0.58799,3.15661 -0.46421,2.81619 -0.21664,1.79493 v 38.59109 l -3.06375,1.64021 -2.1044,0.99031 -2.66147,1.67114 -2.87808,2.22819 -2.72335,2.56862 -2.1044,2.78524 -1.45452,1.98062 -1.29666,1.95939 z"
         id="path7" /><path
         style="fill:url(#linearGradient11);fill-opacity:1;stroke:none;stroke-width:0.423037;stroke-dasharray:none;stroke-opacity:1"
         d="m 92.100748,233.50937 2.104404,-1.7021 0.897477,-1.48545 0.89747,-1.94967 0.80461,-2.38293 0.031,-2.66145 -0.18568,-2.50672 -0.92843,-3.37324 -1.11408,-3.40419 -1.237881,-4.11596 -1.145059,-4.36355 -0.897466,-3.89935 -0.340412,-3.0947 -0.278532,-4.11599 -0.402302,-6.00375 -0.278533,-4.64206 -0.866526,-3.96124 -1.237878,-4.3945 -1.48546,-3.46608 -2.290096,-4.30165 -1.763981,-2.6924 -1.45452,-1.6402 -1.733042,-2.01156 -1.794932,-1.88778 -1.578301,-1.51641 -1.918728,-1.54736 -2.351982,-1.54736 -3.187556,-2.0425 -2.290092,-1.176 -2.6924,-1.29978 -2.073459,-0.99032 -2.321038,-0.83556 -2.351981,-0.80463 -2.382933,-0.64988 -2.13535,-0.43327 -2.939982,-0.30947 -2.104406,-0.15474 -8.077204,0.46421 2.630506,1.51641 2.63051,2.13535 1.392621,1.85684 1.516408,2.32104 1.392621,2.78524 0.680839,1.60924 1.021256,2.69242 1.73304,6.28226 1.361676,5.41575 1.73304,4.95155 2.413878,5.63238 2.506719,4.08502 1.547358,2.32103 1.39262,1.764 1.423567,1.64018 2.228197,2.07347 1.733039,1.42358 2.19725,1.60924 2.011563,1.26883 1.887778,1.176 1.918718,0.95936 1.856833,1.0522 2.042514,0.92842 1.578301,0.9903 2.166305,1.48546 4.525736,4.02804 1.925698,3.10737 0.09856,-0.98474 -0.229777,-1.49898 -0.558018,-1.86003 -0.842486,-1.71782 -1.376185,-2.2653 -1.5783,-2.87809 -2.027045,-3.82197 -1.856822,-3.99218 -2.104415,-4.20881 -2.011552,-4.23977 -1.918734,-3.83743 -1.609248,-3.21851 -2.259142,-3.62082 -1.609252,-2.66145 -1.856826,-2.97093 -1.794937,-2.32103 -1.763989,-2.352 -1.671145,-2.07345 -1.918723,-2.10441 -1.516412,-1.51641 -1.794934,-1.85682 -1.733041,-1.54736 -1.454514,-1.23788 -1.423571,-1.17601 -1.299779,-0.95934 -0.928415,-0.89748 1.454516,0.89748 1.114098,0.68083 2.878083,1.98062 2.754297,2.1044 3.125662,2.72335 3.249452,3.18756 2.939978,3.18755 2.754298,3.65177 2.475772,3.83744 2.939979,4.95155 2.351986,4.54923 2.166295,4.14691 2.351986,5.13723 1.856833,4.82776 3.187551,7.61299 2.90904,6.31323 0.761012,2.24795 0.962859,3.67633 0.61271,2.66972 0.350139,3.50128 -0.04371,2.75725 -0.02796,1.42567 -0.232102,1.19147 -0.541573,1.34619 z"
         id="path8" /><path
         style="fill:url(#linearGradient13);fill-opacity:1;stroke:none;stroke-width:0.423038;stroke-dasharray:none;stroke-opacity:1"
         d="m 97.774809,212.80167 -1.94758,-4.83613 -0.35325,-3.3608 -0.49514,-6.5608 -0.27853,-8.23193 -0.649898,-9.37698 -0.526093,-5.50861 -1.206939,-9.43888 -1.175998,-5.84902 -2.042503,-8.23194 -2.537667,-7.4892 -2.537668,-5.81806 -2.166305,-4.14692 -2.909029,-4.95155 -2.970931,-4.58017 -3.218502,-3.58988 -2.90903,-2.97092 -3.094714,-2.41387 -4.255233,-2.44483 -3.620816,-1.76399 -3.713659,-0.97483 -4.270708,-0.0619 -3.156607,0.15473 -2.893561,0.72726 -2.90903,1.37715 -1.865918,1.29989 -1.116029,1.20356 -1.334861,1.5537 -1.050379,2.01322 -0.350128,2.12265 -0.0219,2.82289 0.809671,2.07889 0.131296,0.35013 -1.991348,-1.44428 -1.881931,-3.17303 -1.18168,-2.95419 v -5.1425 l 0.503307,-2.45089 1.159795,-3.10737 1.903814,-3.15115 2.538424,-3.04172 1.969462,-1.509921 2.60407,-1.61934 3.194911,-1.37863 3.21679,-0.83156 2.51654,-0.28448 4.464119,-0.0875 3.041729,0.45954 3.216792,1.00662 2.188296,1.00661 2.385238,1.48805 2.560302,2.013221 2.888552,2.73537 2.100761,2.42901 1.575575,2.38524 1.575568,2.64783 1.378628,2.75725 1.663106,3.47939 1.575569,3.63256 1.22544,3.45752 1.028499,2.95419 1.269214,4.0921 0.875311,3.15115 1.553692,4.66107 1.312977,3.93893 1.203564,3.54504 1.1598,3.0636 1.094139,4.24529 1.1598,4.90179 1.050364,5.64579 0.74403,4.9893 0.54708,4.39848 0.30636,4.98932 0.30635,7.39643 0.39391,7.46208 z"
         id="path9" /><path
         style="fill:url(#linearGradient15);fill-opacity:1;stroke:none;stroke-width:0.423038;stroke-dasharray:none;stroke-opacity:1"
         d="m 91.953956,143.41088 -1.1598,-3.91705 -1.378628,-4.50788 -1.575569,-4.70483 -1.203563,-3.58881 -2.297703,-6.17098 -2.056998,-5.1425 -2.188449,-4.42017 -2.166294,-3.6827 -2.259146,-2.8162 -2.661453,-2.97092 -1.733039,-1.578311 -1.60925,-1.33073 -0.742732,-1.0522 -2.07346,-3.62082 -1.763985,-2.47577 -2.692405,-3.001885 -2.847134,-2.44482 -2.228196,-1.26883 -2.290091,-1.14505 -1.206938,-0.55704 2.475771,-0.49516 3.404185,-0.30947 2.847139,0.15473 3.435134,0.77368 3.311344,1.26884 3.156611,1.73304 1.887778,1.29978 1.763984,1.763995 1.454521,1.67114 1.454509,2.1663 1.361679,2.35199 0.897466,1.98061 0.835576,2.56862 0.804626,2.444831 0.680834,2.35198 0.495153,1.82587 0.680846,2.7543 1.392619,5.84901 0.185681,-1.51641 -0.247582,-2.53765 -0.711785,-3.37325 -0.618933,-3.00187 -0.711796,-3.86839 -0.680834,-3.311361 -1.206939,-5.94185 -1.175987,-5.972805 -0.185681,-7.984361 0.897466,-3.93029 1.175987,-3.187556 1.547361,-2.90903 1.733042,-2.723351 2.042503,-2.723352 1.640201,-2.413873 1.36168,-2.011568 1.640201,-2.59956 1.48546,-3.001874 0.990316,-3.001872 1.82587,4.580179 3.497021,6.437006 5.91091,8.819936 1.14504,2.073459 1.36169,3.744608 0.71178,4.085022 0.24758,3.620817 -0.46421,3.37324 -1.08315,4.425445 -2.44482,5.32291 -2.78526,6.746491 -1.73303,5.84901 -1.17599,4.17786 -0.804623,3.8065 -0.46421,4.20882 -0.18567,2.56861 -0.588018,4.58018 -0.89746,3.80649 -0.86652,3.09472 -0.64989,2.56861 -0.47579,1.92153 -0.19695,-3.07456 -0.19694,-3.11831 -0.20789,-2.25394 -0.437657,-3.10738 -0.481419,-3.58881 0.04371,-3.8295 v -4.48602 l 0.503306,-4.02646 0.109478,-3.61067 0.284482,-3.56692 0.37201,-3.76387 0.10935,-3.173031 0.24071,-4.68295 -0.0875,-14.55216 -0.70026,7.834095 -0.218826,2.18829 -0.08753,3.063615 -0.722145,4.81425 -0.568945,4.792371 -0.897209,7.13383 -0.700247,5.82087 -0.306365,2.01323 v 8.40305 l -0.236098,4.55562 -0.06181,4.2707 0.170222,2.78524 0.185681,1.87232 0.04639,0.91292 0.232112,1.03674 0.247572,1.8104 z"
         id="path10" /><path
         style="fill:url(#linearGradient17);fill-opacity:1;stroke:none;stroke-width:0.423038;stroke-dasharray:none;stroke-opacity:1"
         d="m 91.953956,143.41088 -1.1598,-3.91705 -1.378628,-4.50788 -1.575569,-4.70483 -1.203563,-3.58881 -2.297703,-6.17098 -2.056998,-5.1425 -2.188449,-4.42017 -2.166294,-3.6827 -2.259146,-2.8162 -2.661453,-2.97092 -1.733039,-1.578311 -1.60925,-1.33073 -0.742732,-1.0522 -2.07346,-3.62082 -1.763985,-2.47577 -2.692405,-3.001885 -2.847134,-2.44482 -2.228196,-1.26883 -2.290091,-1.14505 -1.206938,-0.55704 2.475771,-0.49516 3.404185,-0.30947 2.847139,0.15473 3.435134,0.77368 3.311344,1.26884 3.156611,1.73304 1.887778,1.29978 1.763984,1.763995 1.454521,1.67114 1.454509,2.1663 1.361679,2.35199 0.897466,1.98061 0.835576,2.56862 0.804626,2.444831 0.680834,2.35198 0.495153,1.82587 0.680846,2.7543 1.392619,5.84901 0.185681,-1.51641 -0.247582,-2.53765 -0.711785,-3.37325 -0.618933,-3.00187 -0.711796,-3.86839 -0.680834,-3.311361 -1.206939,-5.94185 -1.175987,-5.972805 -0.185681,-7.984361 0.897466,-3.93029 1.175987,-3.187556 1.547361,-2.90903 1.733042,-2.723351 2.042503,-2.723352 1.640201,-2.413873 1.36168,-2.011568 1.640201,-2.59956 1.48546,-3.001874 0.990316,-3.001872 1.82587,4.580179 3.497021,6.437006 5.91091,8.819936 1.14504,2.073459 1.36169,3.744608 0.71178,4.085022 0.24758,3.620817 -0.46421,3.37324 -1.08315,4.425445 -2.44482,5.32291 -2.78526,6.746491 -1.73303,5.84901 -1.17599,4.17786 -0.804623,3.8065 -0.46421,4.20882 -0.18567,2.56861 -0.588018,4.58018 -0.89746,3.80649 -0.86652,3.09472 -0.64989,2.56861 -0.47579,1.92153 -0.19695,-3.07456 -0.19694,-3.11831 -0.20789,-2.25394 -0.437657,-3.10738 -0.481419,-3.58881 0.04371,-3.8295 v -4.48602 l 0.503306,-4.02646 0.109478,-3.61067 0.284482,-3.56692 0.37201,-3.76387 0.10935,-3.173031 0.24071,-4.68295 -0.0875,-14.55216 -0.70026,7.834095 -0.218826,2.18829 -0.08753,3.063615 -0.722145,4.81425 -0.568945,4.792371 -0.897209,7.13383 -0.700247,5.82087 -0.306365,2.01323 v 8.40305 l -0.236098,4.55562 -0.06181,4.2707 0.170222,2.78524 0.185681,1.87232 0.04639,0.91292 0.232112,1.03674 0.247572,1.8104 z"
         id="path15" /><path
         style="fill:url(#linearGradient19);fill-opacity:1;stroke:none;stroke-width:0.423038;stroke-dasharray:none;stroke-opacity:1"
         d="m 97.774809,212.80167 -1.94758,-4.83613 -0.35325,-3.3608 -0.49514,-6.5608 -0.27853,-8.23193 -0.649898,-9.37698 -0.526093,-5.50861 -1.206939,-9.43888 -1.175998,-5.84902 -2.042503,-8.23194 -2.537667,-7.4892 -2.537668,-5.81806 -2.166305,-4.14692 -2.909029,-4.95155 -2.970931,-4.58017 -3.218502,-3.58988 -2.90903,-2.97092 -3.094714,-2.41387 -4.255233,-2.44483 -3.620816,-1.76399 -3.713659,-0.97483 -4.270708,-0.0619 -3.156607,0.15473 -2.893561,0.72726 -2.90903,1.37715 -1.865918,1.29989 -1.116029,1.20356 -1.334861,1.5537 -1.050379,2.01322 -0.350128,2.12265 -0.0219,2.82289 0.809671,2.07889 0.131296,0.35013 -1.991348,-1.44428 -1.881931,-3.17303 -1.18168,-2.95419 v -5.1425 l 0.503307,-2.45089 1.159795,-3.10737 1.903814,-3.15115 2.538424,-3.04172 1.969462,-1.509921 2.60407,-1.61934 3.194911,-1.37863 3.21679,-0.83156 2.51654,-0.28448 4.464119,-0.0875 3.041729,0.45954 3.216792,1.00662 2.188296,1.00661 2.385238,1.48805 2.560302,2.013221 2.888552,2.73537 2.100761,2.42901 1.575575,2.38524 1.575568,2.64783 1.378628,2.75725 1.663106,3.47939 1.575569,3.63256 1.22544,3.45752 1.028499,2.95419 1.269214,4.0921 0.875311,3.15115 1.553692,4.66107 1.312977,3.93893 1.203564,3.54504 1.1598,3.0636 1.094139,4.24529 1.1598,4.90179 1.050364,5.64579 0.74403,4.9893 0.54708,4.39848 0.30636,4.98932 0.30635,7.39643 0.39391,7.46208 z"
         id="path17" /><path
         style="fill:url(#linearGradient21);fill-opacity:1;stroke:none;stroke-width:0.423037;stroke-dasharray:none;stroke-opacity:1"
         d="m 92.100748,233.50937 2.104404,-1.7021 0.897477,-1.48545 0.89747,-1.94967 0.80461,-2.38293 0.031,-2.66145 -0.18568,-2.50672 -0.92843,-3.37324 -1.11408,-3.40419 -1.237881,-4.11596 -1.145059,-4.36355 -0.897466,-3.89935 -0.340412,-3.0947 -0.278532,-4.11599 -0.402302,-6.00375 -0.278533,-4.64206 -0.866526,-3.96124 -1.237878,-4.3945 -1.48546,-3.46608 -2.290096,-4.30165 -1.763981,-2.6924 -1.45452,-1.6402 -1.733042,-2.01156 -1.794932,-1.88778 -1.578301,-1.51641 -1.918728,-1.54736 -2.351982,-1.54736 -3.187556,-2.0425 -2.290092,-1.176 -2.6924,-1.29978 -2.073459,-0.99032 -2.321038,-0.83556 -2.351981,-0.80463 -2.382933,-0.64988 -2.13535,-0.43327 -2.939982,-0.30947 -2.104406,-0.15474 -8.077204,0.46421 2.630506,1.51641 2.63051,2.13535 1.392621,1.85684 1.516408,2.32104 1.392621,2.78524 0.680839,1.60924 1.021256,2.69242 1.73304,6.28226 1.361676,5.41575 1.73304,4.95155 2.413878,5.63238 2.506719,4.08502 1.547358,2.32103 1.39262,1.764 1.423567,1.64018 2.228197,2.07347 1.733039,1.42358 2.19725,1.60924 2.011563,1.26883 1.887778,1.176 1.918718,0.95936 1.856833,1.0522 2.042514,0.92842 1.578301,0.9903 2.166305,1.48546 4.525736,4.02804 1.925698,3.10737 0.09856,-0.98474 -0.229777,-1.49898 -0.558018,-1.86003 -0.842486,-1.71782 -1.376185,-2.2653 -1.5783,-2.87809 -2.027045,-3.82197 -1.856822,-3.99218 -2.104415,-4.20881 -2.011552,-4.23977 -1.918734,-3.83743 -1.609248,-3.21851 -2.259142,-3.62082 -1.609252,-2.66145 -1.856826,-2.97093 -1.794937,-2.32103 -1.763989,-2.352 -1.671145,-2.07345 -1.918723,-2.10441 -1.516412,-1.51641 -1.794934,-1.85682 -1.733041,-1.54736 -1.454514,-1.23788 -1.423571,-1.17601 -1.299779,-0.95934 -0.928415,-0.89748 1.454516,0.89748 1.114098,0.68083 2.878083,1.98062 2.754297,2.1044 3.125662,2.72335 3.249452,3.18756 2.939978,3.18755 2.754298,3.65177 2.475772,3.83744 2.939979,4.95155 2.351986,4.54923 2.166295,4.14691 2.351986,5.13723 1.856833,4.82776 3.187551,7.61299 2.90904,6.31323 0.761012,2.24795 0.962859,3.67633 0.61271,2.66972 0.350139,3.50128 -0.04371,2.75725 -0.02796,1.42567 -0.232102,1.19147 -0.541573,1.34619 z"
         id="path19" /></g></g></svg>
